<?xml version="1.0" encoding="UTF-8"?><svg id="a" xmlns="http://www.w3.org/2000/svg" viewBox="0 0 804.06 804.06"><defs><style>.b{fill:#f9f6d7;stroke:#041733;stroke-linejoin:round;stroke-width:12.53px;}</style></defs><path class="b" d="M482.23,35.22v221.08c0,18.33-14.86,33.19-33.19,33.19h-35.28l27.57,456.36c.87,14.52-10.65,26.77-25.19,26.77h-28.21c-14.53,0-26.06-12.25-25.19-26.77l27.57-456.36h-35.28c-18.33,0-33.19-14.86-33.19-33.19V35.22c0-3.86,5.34-4.83,6.71-1.22l41.98,121.55c1.27,3.68,6.61,3.25,7.27-.59l20.84-120.68c.71-3.78,6.1-3.78,6.81,0l20.84,120.68c.66,3.84,6,4.27,7.27,.59l41.98-121.55c1.36-3.62,6.71-2.65,6.71,1.22Z"/></svg>