<?xml version="1.0" encoding="UTF-8"?><svg id="a" xmlns="http://www.w3.org/2000/svg" viewBox="0 0 804.06 804.06"><defs><style>.b{fill:#65c460;fill-rule:evenodd;}.c{fill:#041733;}</style></defs><g><path class="b" d="M39.45,448.67l-.12-.18c-9.3-13.7-7.68-21.71-1.72-30.91l.08-.12,54.85-94.4-39.61-23.33H199.91l74.57,127.84-39.04-22.55-102.23,177.2c-3.38,5.97-5.3,11.68-6.28,16.95L39.45,448.67Z"/><path class="c" d="M196.31,305.99l60.86,104.33-13.16-7.6-10.86-6.27-6.27,10.86-99.1,171.77-.02,.04-.02,.04c-.9,1.59-1.71,3.17-2.44,4.72L44.98,445.71l-.22-.38-.25-.36c-8.18-12.05-5.96-17.32-1.65-23.99l.16-.25,.15-.26,51.65-88.89,6.26-10.77-10.74-6.32-14.43-8.5h120.39m7.2-12.53H29.94l54.05,31.83-51.65,88.89c-6.6,10.21-9.61,21.02,1.8,37.83l100.9,173.57c-1.8-7.21-6.61-22.22,3.6-40.24l99.1-171.77,54.05,31.22-88.28-151.34h0Z"/></g><g><path class="b" d="M236.45,697.98l-3.29-.55-.2-.02c-38.58-3.89-57.96-25.9-67.42-43.68-11.82-22.21-12.83-47.74-7-58.74l35.37-61.04h182.3v164.04H236.45Z"/><path class="c" d="M369.94,540.22v151.5H236.97l-2.57-.43-.4-.07-.41-.04c-35.83-3.61-53.78-23.96-62.52-40.39-11.42-21.47-11.43-44.33-7.05-52.76l33.5-57.81h172.42m12.53-12.53H190.29l-37.24,64.27c-13.21,24.62,1.8,103.9,79.28,111.7l3.6,.6h146.54v-176.57h0Z"/></g><g><path class="b" d="M435.35,617.76l73.59-128.4v45.19h204.03c6.86-.2,12.77-1.44,17.82-3.22l-86.65,150.84-.13,.28c-6.75,14.95-14.78,16.97-21.74,16.97-1.18,0-2.41-.07-3.75-.2l-.31-.03h-109.22l-.44,45.67-73.21-127.1Z"/><path class="c" d="M502.67,512.9v27.92h210.48c1.78-.06,3.5-.17,5.16-.34l-79.45,138.31-.3,.53-.25,.56c-5.53,12.25-10.95,13.28-16.03,13.28-.96,0-2.01-.06-3.13-.17l-.62-.06h-115.73l-.12,12.41-.16,16.47-59.94-104.06,60.1-104.86m12.53-47.07l-87.08,151.94,86.48,150.14,.6-62.45h102.7c1.47,.15,2.93,.23,4.38,.23,10.38,0,20.08-4.31,27.45-20.65l99.7-173.57c-4.81,4.81-15.62,16.22-36.64,16.82h-197.59v-62.46h0Z"/></g><g><path class="b" d="M640.75,505.8l-90.58-157.8,141.72-82.02,69.81,120.74,1.1,3.3,.13,.29c15.93,35.48,6.35,63.39-4.49,80.55-13.39,21.2-34.76,34.62-46.92,34.93h-70.77Z"/><path class="c" d="M689.6,274.55l66.35,114.76,.8,2.4,.2,.6,.26,.58c14.79,32.94,5.95,58.77-4.07,74.64-12.94,20.49-32.48,31.72-41.71,32.01h-67.05l-85.67-149.24,130.89-75.75m4.57-17.13l-152.55,88.28,95.5,166.36h74.47c27.62-.61,88.88-53.45,57.05-124.32l-1.2-3.61-73.27-126.72h0Z"/></g><g><path class="b" d="M482.89,233.88L381.24,56.61c-3.41-5.68-7.2-10.04-11.04-13.42l172.91-.52,.27-.02c1.77-.16,3.47-.24,5.05-.24,13.52,0,18.96,5.63,22.96,14.09l.11,.22,54.3,94.54,39.35-22.73-73.11,127.42-147.84,.51,38.69-22.61Z"/><path class="c" d="M548.44,36.15v12.53h0c10.42,0,14,3.54,17.29,10.5l.21,.45,.25,.43,51.05,88.88,6.26,10.9,10.88-6.28,13.75-7.95-59.73,104.1-120.92,.42,13.2-7.71,10.73-6.27-6.18-10.78L386.74,53.6l-.06-.11-.06-.11c-.83-1.39-1.69-2.71-2.57-3.97l158.82-.48h.53l.53-.05c1.58-.14,3.1-.21,4.5-.21v-12.53m0,0c-1.76,0-3.63,.08-5.61,.26l-199.39,.6c6.6,1.8,21.62,4.81,32.43,22.83l98.49,171.76-53.44,31.23,174.76-.6,86.48-150.74-54.06,31.23-51.05-88.88c-4.88-10.31-12.21-17.67-28.62-17.67h0Z"/></g><g><path class="b" d="M159.82,209.49l70.1-121.25,1.64-2.73c21.85-30.04,49.3-36.35,68.5-36.35,26.63,0,50.44,12.2,57.22,23.51l35.37,61.04-91.14,157.79-141.7-82.01Z"/><path class="c" d="M300.06,55.43c25.4,0,46.71,12.03,51.8,20.4l33.55,57.89-86.19,149.22-130.85-75.73,66.95-115.79,1.47-2.44c20.27-27.72,45.58-33.55,63.27-33.55h0m0-12.53c-25.03,0-52.65,10.04-73.73,39.16l-1.8,3.01-73.27,126.72,152.55,88.29,96.09-166.36-37.24-64.26c-7.76-12.93-33.42-26.55-62.59-26.55h0Z"/></g></svg>