<?xml version="1.0" encoding="UTF-8"?><svg id="a" xmlns="http://www.w3.org/2000/svg" viewBox="0 0 804.06 804.06"><defs><style>.b{fill:#ef572e;}.b,.c,.d,.e,.f{stroke:#041733;stroke-width:12.53px;}.b,.c,.d,.f{stroke-miterlimit:10;}.c{fill:none;}.d{fill:#f9f6d7;}.e{fill:#041733;stroke-linecap:round;stroke-linejoin:round;}.f{fill:#65c460;}</style></defs><path class="d" d="M311.28,153.77c90.7-29.68,185.19-15.69,260.72,30.42,2.24,1.37,4.47,2.78,6.68,4.21-49.88,32.2-73.88,95.06-54.54,154.16,9.57,29.24,28.25,52.95,51.85,69.01-26.12,28.53-36.52,69.95-23.63,109.34,18.58,56.78,78.67,88.33,135.61,72.06-.34,.68-.69,1.36-1.06,2.03-36.39,70.53-99.46,127.34-180.84,153.98-81.39,26.63-165.84,18.1-236.89-17.27-.69-.32-1.37-.67-2.05-1.01,55.55-20.54,85.35-81.52,66.77-138.29-12.89-39.39-45.77-66.65-83.7-74.21,9.55-26.91,10.59-57.07,1.02-86.31-19.34-59.1-75.87-95.6-135.13-92.09,.93-2.46,1.89-4.91,2.9-7.34,33.65-81.83,101.59-148.99,192.29-178.67Z"/><path class="b" d="M578.69,188.46c-160.82,30.21-315.01,80.67-462.58,151.38,.94-2.46,1.89-4.91,2.9-7.34,33.65-81.83,101.59-148.99,192.29-178.67,90.7-29.68,185.19-15.69,260.72,30.42,2.24,1.37,4.47,2.78,6.68,4.21Z"/><path class="b" d="M687.97,592.97c-.34,.68-.69,1.36-1.06,2.03-36.39,70.53-99.46,127.34-180.84,153.98-81.39,26.63-165.84,18.1-236.89-17.27-.69-.32-1.37-.67-2.05-1.01,150.12-15.83,290.4-61.74,420.84-137.72Z"/><path class="c" d="M116.1,339.78c147.56-70.71,301.76-121.17,462.58-151.38"/><path class="c" d="M267.13,730.69c150.12-15.83,290.4-61.74,420.84-137.72"/><path class="e" d="M311.28,153.77c-24.61-32.71-49.68-58.62-75.71-70.23,1.53-9.15,6.66-14.33,14.61-16.37,30.13,16.33,48.49,47.77,61.1,86.6Z"/><path class="f" d="M389.91,39.48c-56.55,14.75-82.76,52.85-78.63,114.29,61.24-18.36,87.62-56.36,78.63-114.29Z"/></svg>