<?xml version="1.0" encoding="UTF-8"?><svg id="a" xmlns="http://www.w3.org/2000/svg" viewBox="0 0 804.06 804.06"><defs><style>.b{fill:#3b4154;stroke:#041733;stroke-miterlimit:10;stroke-width:12.53px;}</style></defs><path class="b" d="M680.4,250.24h-17.19v-12.99c0-41-33.24-74.24-74.24-74.24h-87.84v-58.17c0-30.32-24.66-54.99-55.01-54.99h-88.19c-30.32,0-55.01,24.66-55.01,54.99v58.17h-87.84c-41,0-74.24,33.24-74.24,74.24v12.99h-17.19c-17.48,0-31.65,14.17-31.65,31.65s14.17,31.65,31.65,31.65h17.19v366.42c0,41,33.24,74.24,74.24,74.24h373.87c41,0,74.24-33.24,74.24-74.24V313.54h17.19c17.48,0,31.65-14.17,31.65-31.65s-14.17-31.65-31.65-31.65Zm-393.37,416.63c0,17.48-14.17,31.65-31.65,31.65s-31.65-14.17-31.65-31.65V375.98c0-17.48,14.17-31.65,31.65-31.65s31.65,14.17,31.65,31.65v290.9Zm144.93,0c0,17.48-14.17,31.65-31.65,31.65s-31.65-14.17-31.65-31.65V375.98c0-17.48,14.17-31.65,31.65-31.65s31.65,14.17,31.65,31.65v290.9Zm24.26-526.31h-108.36v-35.71c0-5.55,4.53-10.07,10.09-10.07h88.19c5.55,0,10.09,4.51,10.09,10.07v35.71Zm120.67,526.31c0,17.48-14.17,31.65-31.65,31.65s-31.65-14.17-31.65-31.65V375.98c0-17.48,14.17-31.65,31.65-31.65s31.65,14.17,31.65,31.65v290.9Z"/></svg>